<?xml version="1.0" standalone="no"?><!DOCTYPE svg PUBLIC "-//W3C//DTD SVG 1.1//EN" "http://www.w3.org/Graphics/SVG/1.1/DTD/svg11.dtd"><svg t="1646053381070" class="icon" viewBox="0 0 1024 1024" version="1.1" xmlns="http://www.w3.org/2000/svg" p-id="5894" xmlns:xlink="http://www.w3.org/1999/xlink" width="200" height="200"><defs><style type="text/css"></style></defs><path d="M512 85.333333c235.52 0 426.666667 191.146667 426.666667 426.666667s-191.146667 426.666667-426.666667 426.666667S85.333333 747.52 85.333333 512 276.48 85.333333 512 85.333333z m-17.066667 170.666667h-128c-23.466667 0-42.666667 19.2-42.666666 42.666667v426.666666c0 23.466667 19.2 42.666667 42.666666 42.666667h128c141.226667 0 256-114.773333 256-256s-114.773333-256-256-256z m0 85.333333c94.293333 0 170.666667 76.373333 170.666667 170.666667s-76.373333 170.666667-170.666667 170.666667h-85.333333V341.333333h85.333333z" p-id="5895" fill="#6667ab"></path></svg>